<mxfile host="Electron" agent="Mozilla/5.0 (Windows NT 10.0; Win64; x64) AppleWebKit/537.36 (KHTML, like Gecko) draw.io/27.0.9 Chrome/134.0.6998.205 Electron/35.4.0 Safari/537.36" version="27.0.9">
  <diagram name="Página-1" id="tM3ftosBq5wTvWjN4mbQ">
    <mxGraphModel dx="2194" dy="1346" grid="1" gridSize="10" guides="1" tooltips="1" connect="1" arrows="1" fold="1" page="1" pageScale="1" pageWidth="827" pageHeight="1169" math="0" shadow="0">
      <root>
        <mxCell id="0" />
        <mxCell id="1" parent="0" />
        <mxCell id="7ZSRkaOjpOQk4Y71W81P-20" style="edgeStyle=orthogonalEdgeStyle;rounded=0;orthogonalLoop=1;jettySize=auto;html=1;exitX=1;exitY=0.5;exitDx=0;exitDy=0;entryX=0;entryY=0.5;entryDx=0;entryDy=0;" parent="1" edge="1">
          <mxGeometry relative="1" as="geometry">
            <mxPoint x="401.5600000000002" y="648" as="sourcePoint" />
          </mxGeometry>
        </mxCell>
        <mxCell id="7ZSRkaOjpOQk4Y71W81P-28" style="edgeStyle=orthogonalEdgeStyle;rounded=0;orthogonalLoop=1;jettySize=auto;html=1;exitX=0;exitY=0.5;exitDx=0;exitDy=0;entryX=0.5;entryY=0;entryDx=0;entryDy=0;" parent="1" edge="1">
          <mxGeometry relative="1" as="geometry">
            <mxPoint x="309.6900000000003" y="648" as="sourcePoint" />
          </mxGeometry>
        </mxCell>
        <mxCell id="7ZSRkaOjpOQk4Y71W81P-25" style="edgeStyle=orthogonalEdgeStyle;rounded=0;orthogonalLoop=1;jettySize=auto;html=1;exitX=1;exitY=0.5;exitDx=0;exitDy=0;entryX=0;entryY=0.5;entryDx=0;entryDy=0;" parent="1" edge="1">
          <mxGeometry relative="1" as="geometry">
            <mxPoint x="342.18000000000006" y="760" as="sourcePoint" />
          </mxGeometry>
        </mxCell>
        <mxCell id="2XhtS2TlbzKRDNo_2Yrc-37" value="" style="edgeStyle=orthogonalEdgeStyle;rounded=0;orthogonalLoop=1;jettySize=auto;html=1;" parent="1" target="2XhtS2TlbzKRDNo_2Yrc-36" edge="1">
          <mxGeometry relative="1" as="geometry">
            <mxPoint x="93.00000000000057" y="297" as="sourcePoint" />
          </mxGeometry>
        </mxCell>
        <mxCell id="2XhtS2TlbzKRDNo_2Yrc-36" value="&quot;Confirme sua senha, antes de atualizá-la:&quot;" style="shape=document;whiteSpace=wrap;html=1;boundedLbl=1;" parent="1" vertex="1">
          <mxGeometry x="266.2800000000001" y="257" width="131.25" height="80" as="geometry" />
        </mxCell>
        <mxCell id="2XhtS2TlbzKRDNo_2Yrc-41" value="" style="verticalLabelPosition=bottom;verticalAlign=top;html=1;shape=card;whiteSpace=wrap;size=20;arcSize=12;container=1;" parent="1" vertex="1">
          <mxGeometry x="277.5300000000001" y="365" width="109.37" height="40" as="geometry" />
        </mxCell>
        <mxCell id="2XhtS2TlbzKRDNo_2Yrc-42" value="&lt;font style=&quot;font-size: 12px;&quot;&gt;Confirmar Senha&lt;/font&gt;" style="text;html=1;align=center;verticalAlign=middle;resizable=0;points=[];autosize=1;strokeColor=none;fillColor=none;" parent="2XhtS2TlbzKRDNo_2Yrc-41" vertex="1">
          <mxGeometry x="-0.6263913837438189" y="5" width="110" height="30" as="geometry" />
        </mxCell>
        <mxCell id="2XhtS2TlbzKRDNo_2Yrc-46" value="" style="endArrow=classic;html=1;rounded=0;entryX=0.5;entryY=0;entryDx=0;entryDy=0;entryPerimeter=0;exitX=0.5;exitY=0.885;exitDx=0;exitDy=0;exitPerimeter=0;" parent="1" source="2XhtS2TlbzKRDNo_2Yrc-36" target="2XhtS2TlbzKRDNo_2Yrc-41" edge="1">
          <mxGeometry width="50" height="50" relative="1" as="geometry">
            <mxPoint x="377.5300000000001" y="315" as="sourcePoint" />
            <mxPoint x="427.5300000000001" y="265" as="targetPoint" />
          </mxGeometry>
        </mxCell>
        <mxCell id="2XhtS2TlbzKRDNo_2Yrc-50" value="" style="edgeStyle=orthogonalEdgeStyle;rounded=0;orthogonalLoop=1;jettySize=auto;html=1;" parent="1" source="2XhtS2TlbzKRDNo_2Yrc-47" edge="1">
          <mxGeometry relative="1" as="geometry">
            <mxPoint x="253.7800000000001" y="485.0588235294117" as="targetPoint" />
          </mxGeometry>
        </mxCell>
        <mxCell id="2XhtS2TlbzKRDNo_2Yrc-78" style="edgeStyle=orthogonalEdgeStyle;rounded=0;orthogonalLoop=1;jettySize=auto;html=1;exitX=1;exitY=0.5;exitDx=0;exitDy=0;entryX=0.004;entryY=0.569;entryDx=0;entryDy=0;entryPerimeter=0;" parent="1" source="2XhtS2TlbzKRDNo_2Yrc-47" target="2XhtS2TlbzKRDNo_2Yrc-53" edge="1">
          <mxGeometry relative="1" as="geometry">
            <Array as="points">
              <mxPoint x="403.7800000000001" y="485" />
              <mxPoint x="403.7800000000001" y="488" />
            </Array>
          </mxGeometry>
        </mxCell>
        <mxCell id="2XhtS2TlbzKRDNo_2Yrc-47" value="Confirmar Senha é igual a Senha salva no banco de dados para essa conta?" style="rhombus;whiteSpace=wrap;html=1;" parent="1" vertex="1">
          <mxGeometry x="281.7500000000001" y="435" width="100.94" height="100" as="geometry" />
        </mxCell>
        <mxCell id="2XhtS2TlbzKRDNo_2Yrc-48" value="" style="edgeStyle=orthogonalEdgeStyle;rounded=0;orthogonalLoop=1;jettySize=auto;html=1;" parent="1" source="2XhtS2TlbzKRDNo_2Yrc-42" target="2XhtS2TlbzKRDNo_2Yrc-47" edge="1">
          <mxGeometry relative="1" as="geometry" />
        </mxCell>
        <mxCell id="2XhtS2TlbzKRDNo_2Yrc-51" style="edgeStyle=orthogonalEdgeStyle;rounded=0;orthogonalLoop=1;jettySize=auto;html=1;exitX=0;exitY=0.5;exitDx=0;exitDy=0;entryX=0;entryY=0.5;entryDx=0;entryDy=0;" parent="1" source="2XhtS2TlbzKRDNo_2Yrc-49" target="2XhtS2TlbzKRDNo_2Yrc-36" edge="1">
          <mxGeometry relative="1" as="geometry" />
        </mxCell>
        <mxCell id="2XhtS2TlbzKRDNo_2Yrc-49" value="&quot;Senha incorreta. Digite-a novamente.&quot;" style="shape=document;whiteSpace=wrap;html=1;boundedLbl=1;" parent="1" vertex="1">
          <mxGeometry x="143.7800000000001" y="445" width="110" height="90" as="geometry" />
        </mxCell>
        <mxCell id="2XhtS2TlbzKRDNo_2Yrc-52" value="F" style="text;html=1;align=center;verticalAlign=middle;resizable=0;points=[];autosize=1;strokeColor=none;fillColor=none;" parent="1" vertex="1">
          <mxGeometry x="258.7800000000001" y="453" width="30" height="30" as="geometry" />
        </mxCell>
        <mxCell id="2XhtS2TlbzKRDNo_2Yrc-53" value="&quot;Digite abaixo sua nova senha, lembrando que s&lt;span style=&quot;text-align: left;&quot;&gt;ua senha deve conter de 4 a 8 caracteres, ao menos um número e uma letra maiúscula.&lt;/span&gt;&lt;div&gt;Nova senha:&quot;&lt;/div&gt;" style="shape=document;whiteSpace=wrap;html=1;boundedLbl=1;" parent="1" vertex="1">
          <mxGeometry x="426.2800000000001" y="425" width="216.25" height="110" as="geometry" />
        </mxCell>
        <mxCell id="2XhtS2TlbzKRDNo_2Yrc-54" value="Há de 4 a 8 caracterers e pelo menos um número&amp;nbsp; na senha?" style="rhombus;whiteSpace=wrap;html=1;verticalAlign=top;arcSize=12;" parent="1" vertex="1">
          <mxGeometry x="426.2800000000001" y="555" width="80" height="80" as="geometry" />
        </mxCell>
        <mxCell id="2XhtS2TlbzKRDNo_2Yrc-58" value="Login" style="ellipse;whiteSpace=wrap;html=1;" parent="1" vertex="1">
          <mxGeometry x="733.7799999999999" y="832.8100000000002" width="80" height="80" as="geometry" />
        </mxCell>
        <mxCell id="2XhtS2TlbzKRDNo_2Yrc-59" style="edgeStyle=orthogonalEdgeStyle;rounded=0;orthogonalLoop=1;jettySize=auto;html=1;exitX=1;exitY=0.5;exitDx=0;exitDy=0;entryX=0;entryY=0.5;entryDx=0;entryDy=0;" parent="1" source="2XhtS2TlbzKRDNo_2Yrc-60" target="2XhtS2TlbzKRDNo_2Yrc-58" edge="1">
          <mxGeometry relative="1" as="geometry" />
        </mxCell>
        <mxCell id="2XhtS2TlbzKRDNo_2Yrc-60" value="&quot;Cadastro realizado com sucesso. Realize o login, para acessar o MUTARE&lt;span style=&quot;background-color: transparent; color: light-dark(rgb(0, 0, 0), rgb(255, 255, 255));&quot;&gt;&quot;&lt;/span&gt;" style="shape=document;whiteSpace=wrap;html=1;boundedLbl=1;" parent="1" vertex="1">
          <mxGeometry x="553.7799999999999" y="832.8100000000002" width="137" height="80" as="geometry" />
        </mxCell>
        <mxCell id="2XhtS2TlbzKRDNo_2Yrc-61" value="" style="edgeStyle=orthogonalEdgeStyle;rounded=0;orthogonalLoop=1;jettySize=auto;html=1;" parent="1" source="2XhtS2TlbzKRDNo_2Yrc-62" target="2XhtS2TlbzKRDNo_2Yrc-60" edge="1">
          <mxGeometry relative="1" as="geometry" />
        </mxCell>
        <mxCell id="2XhtS2TlbzKRDNo_2Yrc-62" value="Salva Email e Senha no banco de dados" style="rounded=0;whiteSpace=wrap;html=1;" parent="1" vertex="1">
          <mxGeometry x="562.2799999999999" y="755.0000000000002" width="120" height="60" as="geometry" />
        </mxCell>
        <mxCell id="2XhtS2TlbzKRDNo_2Yrc-63" value="&lt;div&gt;&quot;Número de caracteres inválido. Digite novamente.&quot;&lt;/div&gt;" style="shape=document;whiteSpace=wrap;html=1;boundedLbl=1;" parent="1" vertex="1">
          <mxGeometry x="266.2800000000001" y="565.31" width="118.5" height="59.38" as="geometry" />
        </mxCell>
        <mxCell id="2XhtS2TlbzKRDNo_2Yrc-65" style="edgeStyle=orthogonalEdgeStyle;rounded=0;orthogonalLoop=1;jettySize=auto;html=1;entryX=1;entryY=0.5;entryDx=0;entryDy=0;exitX=0;exitY=0.5;exitDx=0;exitDy=0;" parent="1" source="2XhtS2TlbzKRDNo_2Yrc-54" target="2XhtS2TlbzKRDNo_2Yrc-63" edge="1">
          <mxGeometry relative="1" as="geometry">
            <mxPoint x="336.2800000000001" y="632.4900000000002" as="sourcePoint" />
          </mxGeometry>
        </mxCell>
        <mxCell id="2XhtS2TlbzKRDNo_2Yrc-66" value="F" style="text;html=1;align=center;verticalAlign=middle;resizable=0;points=[];autosize=1;strokeColor=none;fillColor=none;" parent="1" vertex="1">
          <mxGeometry x="396.2800000000001" y="565.31" width="30" height="30" as="geometry" />
        </mxCell>
        <mxCell id="2XhtS2TlbzKRDNo_2Yrc-68" value="V" style="text;html=1;align=center;verticalAlign=middle;resizable=0;points=[];autosize=1;strokeColor=none;fillColor=none;" parent="1" vertex="1">
          <mxGeometry x="519.7899999999998" y="573.0900000000001" width="30" height="30" as="geometry" />
        </mxCell>
        <mxCell id="2XhtS2TlbzKRDNo_2Yrc-70" style="edgeStyle=orthogonalEdgeStyle;rounded=0;orthogonalLoop=1;jettySize=auto;html=1;exitX=0;exitY=0.5;exitDx=0;exitDy=0;entryX=1;entryY=0.5;entryDx=0;entryDy=0;" parent="1" source="2XhtS2TlbzKRDNo_2Yrc-72" target="2XhtS2TlbzKRDNo_2Yrc-73" edge="1">
          <mxGeometry relative="1" as="geometry">
            <mxPoint x="378.92999999999995" y="735.0900000000001" as="targetPoint" />
          </mxGeometry>
        </mxCell>
        <mxCell id="2XhtS2TlbzKRDNo_2Yrc-71" style="edgeStyle=orthogonalEdgeStyle;rounded=0;orthogonalLoop=1;jettySize=auto;html=1;exitX=1;exitY=0.5;exitDx=0;exitDy=0;entryX=0.5;entryY=0;entryDx=0;entryDy=0;" parent="1" source="2XhtS2TlbzKRDNo_2Yrc-72" edge="1">
          <mxGeometry relative="1" as="geometry">
            <mxPoint x="629.1800000000002" y="755.0899999999997" as="targetPoint" />
          </mxGeometry>
        </mxCell>
        <mxCell id="2XhtS2TlbzKRDNo_2Yrc-72" value="Há pelo menos uma letra maiúscula na senha?" style="rhombus;whiteSpace=wrap;html=1;verticalAlign=top;arcSize=12;" parent="1" vertex="1">
          <mxGeometry x="524.6800000000002" y="655.0899999999997" width="80" height="80" as="geometry" />
        </mxCell>
        <mxCell id="2XhtS2TlbzKRDNo_2Yrc-73" value="&lt;div&gt;Não há letra maiúscula. Digite a senha novamente&lt;/div&gt;" style="shape=document;whiteSpace=wrap;html=1;boundedLbl=1;" parent="1" vertex="1">
          <mxGeometry x="339.1800000000002" y="662.8899999999999" width="129.5" height="64.39" as="geometry" />
        </mxCell>
        <mxCell id="2XhtS2TlbzKRDNo_2Yrc-74" value="F" style="text;html=1;align=center;verticalAlign=middle;resizable=0;points=[];autosize=1;strokeColor=none;fillColor=none;" parent="1" vertex="1">
          <mxGeometry x="494.6800000000002" y="665.1799999999998" width="30" height="30" as="geometry" />
        </mxCell>
        <mxCell id="2XhtS2TlbzKRDNo_2Yrc-75" value="" style="endArrow=classic;html=1;rounded=0;exitX=1;exitY=0.5;exitDx=0;exitDy=0;entryX=0.5;entryY=0;entryDx=0;entryDy=0;" parent="1" source="2XhtS2TlbzKRDNo_2Yrc-54" target="2XhtS2TlbzKRDNo_2Yrc-72" edge="1">
          <mxGeometry width="50" height="50" relative="1" as="geometry">
            <mxPoint x="508.6800000000002" y="625.0900000000001" as="sourcePoint" />
            <mxPoint x="598.6800000000002" y="745.0900000000001" as="targetPoint" />
            <Array as="points">
              <mxPoint x="564.6800000000002" y="595.0900000000001" />
            </Array>
          </mxGeometry>
        </mxCell>
        <mxCell id="2XhtS2TlbzKRDNo_2Yrc-76" value="V" style="text;html=1;align=center;verticalAlign=middle;resizable=0;points=[];autosize=1;strokeColor=none;fillColor=none;" parent="1" vertex="1">
          <mxGeometry x="598.6800000000002" y="675.0900000000001" width="30" height="30" as="geometry" />
        </mxCell>
        <mxCell id="2XhtS2TlbzKRDNo_2Yrc-77" value="" style="endArrow=classic;html=1;rounded=0;entryX=0.5;entryY=0;entryDx=0;entryDy=0;exitX=0.437;exitY=0.946;exitDx=0;exitDy=0;exitPerimeter=0;" parent="1" source="2XhtS2TlbzKRDNo_2Yrc-53" target="2XhtS2TlbzKRDNo_2Yrc-54" edge="1">
          <mxGeometry width="50" height="50" relative="1" as="geometry">
            <mxPoint x="593.7800000000001" y="725" as="sourcePoint" />
            <mxPoint x="643.7800000000001" y="675" as="targetPoint" />
            <Array as="points">
              <mxPoint x="520.7800000000001" y="545" />
            </Array>
          </mxGeometry>
        </mxCell>
        <mxCell id="3khUsyaCyvdCm1Cntf-I-1" value="Atualizar Senha" style="ellipse;whiteSpace=wrap;html=1;" vertex="1" parent="1">
          <mxGeometry x="13" y="257" width="80" height="80" as="geometry" />
        </mxCell>
      </root>
    </mxGraphModel>
  </diagram>
</mxfile>
